<svg width="110" height="82" viewBox="0 0 110 82" fill="none" xmlns="http://www.w3.org/2000/svg">
<path d="M1.20099 75.999V62.1808H4.12251V67.8822H10.0533V62.1808H12.968V75.999H10.0533V70.2909H4.12251V75.999H1.20099Z" fill="white"/>
<path d="M26.9443 76.999H23.6488L28.6701 62.4536H32.6332L37.6474 76.999H34.352L30.7085 65.7774H30.5948L26.9443 76.999ZM26.7383 71.2817H34.5224V73.6823H26.7383V71.2817Z" fill="white"/>
<path d="M55.4998 66.6368C55.443 66.0639 55.1991 65.6188 54.7683 65.3016C54.3374 64.9843 53.7526 64.8257 53.014 64.8257C52.5121 64.8257 52.0883 64.8968 51.7427 65.0388C51.3971 65.1761 51.1319 65.3679 50.9472 65.6141C50.7673 65.8603 50.6774 66.1396 50.6774 66.4521C50.6679 66.7126 50.7223 66.9398 50.8407 67.134C50.9638 67.3281 51.1319 67.4962 51.345 67.6382C51.558 67.7755 51.8043 67.8963 52.0836 68.0004C52.363 68.0999 52.6613 68.1851 52.9785 68.2561L54.2853 68.5686C54.9198 68.7107 55.5022 68.9001 56.0325 69.1368C56.5628 69.3735 57.0221 69.6647 57.4103 70.0104C57.7986 70.356 58.0992 70.7632 58.3123 71.232C58.5301 71.7007 58.6414 72.2381 58.6461 72.8442C58.6414 73.7343 58.4141 74.5061 57.9643 75.1595C57.5192 75.8082 56.8753 76.3125 56.0325 76.6723C55.1944 77.0274 54.1835 77.205 52.9998 77.205C51.8256 77.205 50.8028 77.0251 49.9316 76.6652C49.0651 76.3054 48.3881 75.7727 47.9004 75.0672C47.4174 74.357 47.1641 73.4787 47.1404 72.4323H50.1163C50.1494 72.92 50.2891 73.3271 50.5353 73.6539C50.7863 73.9758 51.1201 74.2197 51.5367 74.3854C51.9581 74.5464 52.434 74.6269 52.9643 74.6269C53.4851 74.6269 53.9373 74.5511 54.3208 74.3996C54.7091 74.2481 55.0097 74.0374 55.2228 73.7675C55.4359 73.4976 55.5424 73.1875 55.5424 72.8371C55.5424 72.5104 55.4453 72.2358 55.2512 72.0132C55.0618 71.7907 54.7825 71.6013 54.4132 71.445C54.0486 71.2888 53.6011 71.1468 53.0708 71.0189L51.487 70.6212C50.2607 70.3229 49.2924 69.8565 48.5822 69.222C47.872 68.5876 47.5192 67.7329 47.5239 66.6581C47.5192 65.7774 47.7536 65.008 48.2271 64.3499C48.7053 63.6917 49.3611 63.178 50.1944 62.8087C51.0277 62.4394 51.9747 62.2547 53.0353 62.2547C54.1149 62.2547 55.0571 62.4394 55.862 62.8087C56.6717 63.178 57.3014 63.6917 57.7512 64.3499C58.201 65.008 58.433 65.7703 58.4472 66.6368H55.4998Z" fill="white"/>
<path d="M73.2894 76.999H69.9939L75.0152 62.4536H78.9783L83.9925 76.999H80.697L77.0536 65.7774H76.9399L73.2894 76.999ZM73.0834 71.2817H80.8675V73.6823H73.0834V71.2817Z" fill="white"/>
<path d="M106.121 62.4536V76.999H103.465L97.1371 67.8442H97.0305V76.999H93.9552V62.4536H96.6541L102.933 71.6013H103.06V62.4536H106.121Z" fill="white"/>
<path fill-rule="evenodd" clip-rule="evenodd" d="M65.395 1L32.08 48.187H10.1949L43.509 1H65.395Z" fill="url(#paint0_linear_59_3120)"/>
<path fill-rule="evenodd" clip-rule="evenodd" d="M109.759 20.1621L94.109 41.9001L83.166 26.3161L87.8721 20.1621H109.759Z" fill="url(#paint1_linear_59_3120)"/>
<path fill-rule="evenodd" clip-rule="evenodd" d="M54.4139 16.545L72.223 41.898H94.109L65.39 0.998047L54.4139 16.545Z" fill="url(#paint2_linear_59_3120)"/>
<path fill-rule="evenodd" clip-rule="evenodd" d="M45.761 55.0941H52.6689V48.1851H45.761V55.0941ZM56.227 55.0941H63.1349V48.1851H56.227V55.0941ZM56.227 45.0181H63.1349V38.1101H56.227V45.0181ZM45.761 45.0181H52.6689V38.1101H45.761V45.0181Z" fill="#2492EB"/>
<defs>
<linearGradient id="paint0_linear_59_3120" x1="54.2446" y1="52.9529" x2="33.9647" y2="5.15674" gradientUnits="userSpaceOnUse">
<stop stop-color="#20C4F4"/>
<stop offset="1" stop-color="#92D6E5"/>
</linearGradient>
<linearGradient id="paint1_linear_59_3120" x1="103.058" y1="20.1404" x2="82.224" y2="48.2601" gradientUnits="userSpaceOnUse">
<stop stop-color="#2C8ECE"/>
<stop offset="1" stop-color="#1E233F"/>
</linearGradient>
<linearGradient id="paint2_linear_59_3120" x1="76.6432" y1="33.4317" x2="48.7232" y2="-12.7104" gradientUnits="userSpaceOnUse">
<stop stop-color="#00ADE5"/>
<stop offset="1" stop-color="#1E233F"/>
</linearGradient>
</defs>
</svg>
