<svg width="80" height="42" viewBox="0 0 80 42" fill="none" xmlns="http://www.w3.org/2000/svg">
<path d="M19.91 41.5343C15.9721 41.5343 12.1227 40.3163 8.84853 38.0344C5.57436 35.7525 3.02253 32.5091 1.51559 28.7144C0.00865461 24.9197 -0.385666 20.7441 0.382563 16.7157C1.15079 12.6872 3.04703 8.9869 5.83149 6.08256C8.61594 3.17822 12.1635 1.20035 16.0257 0.399045C19.8878 -0.402259 23.891 0.0089945 27.5291 1.58081C31.1672 3.15262 34.2766 5.8144 36.4644 9.22954C38.6521 12.6447 39.8198 16.6598 39.8198 20.7671C39.8144 26.2732 37.7151 31.5521 33.9824 35.4455C30.2498 39.3389 25.1887 41.5287 19.91 41.5343V41.5343ZM19.91 1.5797C16.2698 1.5797 12.7115 2.70559 9.68486 4.81499C6.65823 6.92439 4.29921 9.92256 2.9062 13.4304C1.51319 16.9382 1.1487 20.7981 1.85885 24.5219C2.569 28.2458 4.32192 31.6664 6.89586 34.3511C9.4698 37.0359 12.7492 38.8643 16.3193 39.605C19.8895 40.3457 23.5901 39.9655 26.9531 38.5126C30.3161 37.0596 33.1905 34.599 35.2129 31.4421C37.2352 28.2852 38.3146 24.5736 38.3146 20.7768C38.3092 15.6871 36.3684 10.8075 32.9181 7.20858C29.4677 3.60965 24.7895 1.58531 19.91 1.5797V1.5797Z" fill="white"/>
<path d="M26.134 33.0676H13.6855C13.1174 33.0671 12.5728 32.8315 12.1711 32.4125C11.7694 31.9936 11.5435 31.4255 11.543 30.8329V29.0991C11.5427 27.953 11.7589 26.8181 12.1793 25.7592C12.5997 24.7003 13.2161 23.7382 13.993 22.9278C14.77 22.1174 15.6924 21.4746 16.7077 21.0361C17.7229 20.5976 18.8109 20.3721 19.9097 20.3723V20.3723C21.0085 20.3721 22.0966 20.5976 23.1118 21.0361C24.127 21.4746 25.0495 22.1174 25.8264 22.9278C26.6034 23.7382 27.2196 24.7003 27.64 25.7592C28.0604 26.8181 28.2766 27.953 28.2764 29.0991V30.8329C28.2759 31.4255 28.05 31.9936 27.6484 32.4125C27.2467 32.8315 26.702 33.0671 26.134 33.0676Z" fill="white"/>
<path d="M19.9097 18.7926C22.6433 18.7926 24.8594 16.4811 24.8594 13.6297C24.8594 10.7783 22.6433 8.4668 19.9097 8.4668C17.176 8.4668 14.96 10.7783 14.96 13.6297C14.96 16.4811 17.176 18.7926 19.9097 18.7926Z" fill="white"/>
<path d="M52.4205 28H48.6349V25.3651H52.2926C53.2017 25.3651 53.9664 25.2041 54.5866 24.8821C55.2116 24.5554 55.6804 24.0511 55.9929 23.3693C56.3101 22.6828 56.4688 21.7973 56.4688 20.7131C56.4688 19.6383 56.3101 18.7599 55.9929 18.0781C55.6804 17.3963 55.214 16.8944 54.5938 16.5724C53.9735 16.2505 53.2088 16.0895 52.2997 16.0895H48.571V13.4545H52.4631C53.9261 13.4545 55.1856 13.7457 56.2415 14.3281C57.2973 14.9058 58.1094 15.7367 58.6776 16.821C59.2505 17.9053 59.5369 19.2027 59.5369 20.7131C59.5369 22.2282 59.2505 23.5303 58.6776 24.6193C58.1094 25.7083 57.2926 26.544 56.2273 27.1264C55.1667 27.7088 53.8977 28 52.4205 28ZM50.3395 13.4545V28H47.2642V13.4545H50.3395ZM45.2472 21.2244V19.4347H52.3281V21.2244H45.2472ZM64.869 28.206C64.1729 28.206 63.5527 28.0852 63.0082 27.8438C62.4637 27.5975 62.0328 27.2353 61.7156 26.7571C61.4031 26.2741 61.2468 25.6728 61.2468 24.9531C61.2468 24.3471 61.3581 23.8381 61.5806 23.4261C61.8031 23.0142 62.1062 22.6828 62.4897 22.4318C62.8732 22.1809 63.3088 21.9915 63.7965 21.8636C64.2889 21.7358 64.805 21.6458 65.3448 21.5938C65.9793 21.5275 66.4906 21.4659 66.8789 21.4091C67.2672 21.3475 67.5489 21.2576 67.7241 21.1392C67.8993 21.0208 67.9869 20.8456 67.9869 20.6136V20.571C67.9869 20.1212 67.8448 19.7732 67.5607 19.527C67.2814 19.2808 66.8836 19.1577 66.3675 19.1577C65.823 19.1577 65.3898 19.2784 65.0678 19.5199C64.7459 19.7566 64.5328 20.0549 64.4286 20.4148L61.6303 20.1875C61.7724 19.5246 62.0517 18.9517 62.4684 18.4688C62.8851 17.9811 63.4225 17.607 64.0806 17.3466C64.7435 17.0814 65.5105 16.9489 66.3817 16.9489C66.9878 16.9489 67.5678 17.0199 68.1218 17.1619C68.6805 17.304 69.1753 17.5241 69.6062 17.8224C70.0418 18.1207 70.3851 18.5043 70.636 18.973C70.887 19.437 71.0124 19.9934 71.0124 20.642V28H68.1431V26.4872H68.0579C67.8827 26.8281 67.6483 27.1288 67.3548 27.3892C67.0612 27.6449 66.7085 27.8461 66.2965 27.9929C65.8846 28.1349 65.4087 28.206 64.869 28.206ZM65.7354 26.1179C66.1805 26.1179 66.5735 26.0303 66.9144 25.8551C67.2553 25.6752 67.5228 25.4337 67.717 25.1307C67.9111 24.8277 68.0082 24.4844 68.0082 24.1009V22.9432C67.9135 23.0047 67.7833 23.0616 67.6175 23.1136C67.4566 23.161 67.2743 23.206 67.0707 23.2486C66.8671 23.2865 66.6635 23.322 66.4599 23.3551C66.2563 23.3835 66.0716 23.4096 65.9059 23.4332C65.5508 23.4853 65.2406 23.5682 64.9755 23.6818C64.7103 23.7955 64.5044 23.9493 64.3576 24.1435C64.2108 24.3329 64.1374 24.5696 64.1374 24.8537C64.1374 25.2656 64.2866 25.5805 64.5849 25.7983C64.8879 26.0114 65.2714 26.1179 65.7354 26.1179ZM66.3746 32.0838C65.9248 32.0838 65.5389 31.9347 65.217 31.6364C64.895 31.3381 64.734 30.9782 64.734 30.5568C64.734 30.1354 64.895 29.7756 65.217 29.4773C65.5389 29.179 65.9248 29.0298 66.3746 29.0298C66.8245 29.0298 67.208 29.179 67.5252 29.4773C67.8472 29.7756 68.0082 30.1354 68.0082 30.5568C68.0082 30.9782 67.8472 31.3381 67.5252 31.6364C67.208 31.9347 66.8245 32.0838 66.3746 32.0838ZM79.1623 17.0909V19.3636H72.5927V17.0909H79.1623ZM74.0842 14.4773H77.1097V24.6477C77.1097 24.9271 77.1523 25.1449 77.2376 25.3011C77.3228 25.4527 77.4412 25.5592 77.5927 25.6207C77.7489 25.6823 77.9289 25.7131 78.1325 25.7131C78.2745 25.7131 78.4165 25.7012 78.5586 25.6776C78.7006 25.6491 78.8095 25.6278 78.8853 25.6136L79.3612 27.8651C79.2096 27.9124 78.9966 27.9669 78.7219 28.0284C78.4473 28.0947 78.1135 28.1349 77.7205 28.1491C76.9914 28.1776 76.3522 28.0805 75.8029 27.858C75.2584 27.6354 74.8346 27.2898 74.5316 26.821C74.2286 26.3523 74.0794 25.7604 74.0842 25.0455V14.4773Z" fill="white"/>
</svg>
