<svg width="63" height="63" viewBox="0 0 63 63" fill="none" xmlns="http://www.w3.org/2000/svg">
<path d="M31.4439 62.888C25.2249 62.888 19.1455 61.0439 13.9746 57.5887C8.80363 54.1336 4.77344 49.2228 2.39352 43.4771C0.0135963 37.7315 -0.609062 31.4091 0.604212 25.3096C1.81749 19.2101 4.81216 13.6073 9.20968 9.20975C13.6072 4.81222 19.21 1.81748 25.3095 0.604202C31.4091 -0.609072 37.7315 0.0136244 43.4771 2.39355C49.2228 4.77347 54.1336 8.80372 57.5887 13.9747C61.0438 19.1456 62.888 25.225 62.888 31.444C62.8796 39.7809 59.564 47.7739 53.6689 53.6689C47.7738 59.564 39.7808 62.8795 31.4439 62.888ZM31.4439 2.38802C25.695 2.38802 20.0753 4.09276 15.2953 7.28668C10.5152 10.4806 6.78958 15.0203 4.58956 20.3316C2.38955 25.6429 1.81395 31.4873 2.93551 37.1257C4.05707 42.7641 6.82537 47.9434 10.8905 52.0085C14.9556 56.0736 20.1348 58.8419 25.7733 59.9635C31.4117 61.0851 37.2562 60.5094 42.5675 58.3094C47.8788 56.1094 52.4183 52.3838 55.6123 47.6038C58.8062 42.8237 60.5109 37.2039 60.5109 31.455C60.5012 23.7493 57.4355 16.3621 51.9864 10.9138C46.5373 5.46541 39.1496 2.40074 31.4439 2.39201V2.38802Z" fill="#025B8F"/>
<path d="M41.274 50.0677H21.6141C20.7168 50.0672 19.8563 49.7105 19.2218 49.076C18.5873 48.4415 18.2306 47.5811 18.2301 46.6837V44.0587C18.2297 42.3233 18.5712 40.6049 19.2351 39.0015C19.899 37.3981 20.8724 35.9413 22.0995 34.7141C23.3266 33.487 24.7835 32.5137 26.3868 31.8498C27.9902 31.1859 29.7087 30.8443 31.4441 30.8447C33.1795 30.8443 34.898 31.1859 36.5013 31.8498C38.1047 32.5137 39.5616 33.487 40.7887 34.7141C42.0158 35.9413 42.9892 37.3981 43.6531 39.0015C44.317 40.6049 44.6585 42.3233 44.6581 44.0587V46.6837C44.6576 47.5811 44.3009 48.4415 43.6664 49.076C43.0319 49.7105 42.1714 50.0672 41.274 50.0677Z" fill="#025B8F"/>
<path d="M31.4441 28.4538C35.7613 28.4538 39.2611 24.954 39.2611 20.6368C39.2611 16.3196 35.7613 12.8198 31.4441 12.8198C27.1269 12.8198 23.6271 16.3196 23.6271 20.6368C23.6271 24.954 27.1269 28.4538 31.4441 28.4538Z" fill="#025B8F"/>
</svg>
